<?xml version="1.0" encoding="utf-8"?>
<!-- Generator: Adobe Illustrator 16.0.0, SVG Export Plug-In . SVG Version: 6.00 Build 0)  -->
<!DOCTYPE svg PUBLIC "-//W3C//DTD SVG 1.1//EN" "http://www.w3.org/Graphics/SVG/1.1/DTD/svg11.dtd">
<svg version="1.1" id="Layer_1" xmlns="http://www.w3.org/2000/svg" xmlns:xlink="http://www.w3.org/1999/xlink" x="0px" y="0px"
	 width="13.59px" height="16.713px" viewBox="0 0 13.59 16.713" enable-background="new 0 0 13.59 16.713" xml:space="preserve">
<path fill-rule="evenodd" clip-rule="evenodd" fill="#BCBEC0" d="M11.495,7.664c0.001,0.634-0.002,1.268,0.003,1.903
	c0.003,0.57,0.198,1.066,0.605,1.474c0.345,0.342,0.684,0.688,1.03,1.028c0.385,0.377,0.593,0.809,0.358,1.338
	c-0.226,0.514-0.654,0.705-1.203,0.698c-0.97-0.011-1.939-0.003-2.909-0.003c-0.492,0-0.492,0-0.496,0.488
	c-0.008,1.179-0.904,2.107-2.05,2.123c-1.185,0.018-2.118-0.914-2.126-2.121c-0.004-0.49-0.004-0.49-0.492-0.49
	c-0.983,0-1.966-0.006-2.948,0.002c-0.536,0.004-0.946-0.2-1.167-0.693c-0.222-0.496-0.057-0.922,0.305-1.287
	c0.356-0.363,0.721-0.721,1.08-1.082c0.405-0.407,0.607-0.9,0.609-1.473c0.003-1.256,0-2.512,0.001-3.768
	c0.003-2.137,1.311-3.91,3.352-4.546c0.186-0.058,0.302-0.111,0.326-0.357C5.824,0.376,6.291,0,6.796,0
	c0.505,0,0.97,0.377,1.021,0.898C7.842,1.14,7.951,1.202,8.139,1.26c1.935,0.598,3.315,2.45,3.354,4.502
	C11.505,6.396,11.495,7.03,11.495,7.664z"/>
</svg>
