<?xml version="1.0" encoding="utf-8"?>
<!-- Generator: Adobe Illustrator 16.0.0, SVG Export Plug-In . SVG Version: 6.00 Build 0)  -->
<!DOCTYPE svg PUBLIC "-//W3C//DTD SVG 1.1//EN" "http://www.w3.org/Graphics/SVG/1.1/DTD/svg11.dtd">
<svg version="1.1" id="Layer_1" xmlns="http://www.w3.org/2000/svg" xmlns:xlink="http://www.w3.org/1999/xlink" x="0px" y="0px"
	 width="115.953px" height="38.367px" viewBox="0 0 115.953 38.367" enable-background="new 0 0 115.953 38.367"
	 xml:space="preserve">
<g>
	<g>
		<rect y="7.73" fill="#FFFFFF" width="5.798" height="21.258"/>
		<path fill="#FFFFFF" d="M50.265,13.527h-7.749v15.46h-5.797V11.595c0-2.577,1.288-3.865,3.862-3.865h25.11
			c2.574,0,3.861,1.289,3.861,3.865v17.393h-5.779l-0.02-15.46h-7.69v15.46h-5.798V13.527z"/>
		<path fill="#FFFFFF" d="M73.437,11.595c0-2.577,1.287-3.865,3.861-3.865h15.447c2.574,0,3.861,1.289,3.861,3.865v17.393H90.83
			l-0.02-15.46H79.234v9.663h9.65l-1.932,5.798h-9.635c-2.588,0-3.881-1.288-3.881-3.865V11.595z"/>
		<rect x="100.493" y="7.73" fill="#FFFFFF" width="5.797" height="21.258"/>
		<path fill="#FFFFFF" d="M110.155,28.988V0h5.798v28.988H110.155z"/>
		<rect fill="#FFFFFF" width="5.798" height="5.798"/>
		<rect x="100.493" fill="#FFFFFF" width="5.797" height="5.798"/>
		<path fill="#FFFFFF" d="M32.854,32.02V11.595c0-2.577-1.289-3.865-3.865-3.865H13.528c-2.576,0-3.866,1.289-3.866,3.865v13.527
			c0,2.577,1.29,3.865,3.866,3.865h9.663l1.932-5.798H15.46v-9.663h11.595v24.839h6.348l1.932-6.347H32.854z M32.062,36.553h-3.173
			v-2.726h4.001L32.062,36.553z"/>
	</g>
	<g>
		<path fill="#FFFFFF" d="M40.487,34.679h2.399v0.405h-1.963v1.003h1.814v0.384h-1.814v1.121h1.997v0.393h-2.433V34.679z"/>
		<path fill="#FFFFFF" d="M44.061,34.679h0.642l0.951,2.796l0.943-2.796h0.637v3.306h-0.428v-1.951c0-0.066,0.002-0.18,0.005-0.336
			c0.002-0.156,0.004-0.322,0.004-0.501l-0.944,2.788h-0.444l-0.953-2.788v0.101c0,0.081,0.002,0.205,0.007,0.371
			c0.003,0.166,0.006,0.287,0.006,0.365v1.951h-0.428V34.679z"/>
		<path fill="#FFFFFF" d="M49.43,34.679h0.506l1.2,3.306h-0.492l-0.344-0.99h-1.297l-0.359,0.99h-0.459L49.43,34.679z M50.173,36.63
			l-0.509-1.46l-0.529,1.46H50.173z"/>
		<path fill="#FFFFFF" d="M52.194,34.679h0.453v3.306h-0.453V34.679z"/>
		<path fill="#FFFFFF" d="M53.927,34.679h0.448v2.913h1.659v0.393h-2.107V34.679z"/>
		<path fill="#FFFFFF" d="M58.698,34.679h0.642l0.951,2.796l0.943-2.796h0.637v3.306h-0.426v-1.951c0-0.066,0-0.18,0.004-0.336
			c0.003-0.156,0.004-0.322,0.004-0.501l-0.944,2.788h-0.443l-0.952-2.788v0.101c0,0.081,0.002,0.205,0.006,0.371
			c0.005,0.166,0.007,0.287,0.007,0.365v1.951h-0.428V34.679z"/>
		<path fill="#FFFFFF" d="M64.067,34.679h0.505l1.201,3.306h-0.49l-0.346-0.99H63.64l-0.359,0.99h-0.459L64.067,34.679z
			 M64.81,36.63l-0.509-1.46l-0.529,1.46H64.81z"/>
		<path fill="#FFFFFF" d="M66.784,34.679h1.503c0.248,0,0.453,0.036,0.612,0.11c0.306,0.141,0.458,0.401,0.458,0.78
			c0,0.198-0.041,0.36-0.123,0.487c-0.081,0.125-0.195,0.227-0.343,0.303c0.129,0.053,0.226,0.122,0.291,0.207
			c0.065,0.086,0.103,0.225,0.109,0.416l0.017,0.443c0.004,0.127,0.015,0.222,0.031,0.283c0.027,0.104,0.074,0.172,0.144,0.202
			v0.073h-0.55c-0.015-0.028-0.025-0.064-0.035-0.109c-0.009-0.045-0.016-0.133-0.023-0.262l-0.026-0.551
			c-0.011-0.217-0.087-0.361-0.234-0.435c-0.083-0.041-0.213-0.062-0.391-0.062h-0.991v1.418h-0.448V34.679z M68.239,36.194
			c0.204,0,0.366-0.042,0.485-0.125c0.119-0.086,0.178-0.236,0.178-0.455c0-0.236-0.083-0.397-0.249-0.482
			c-0.089-0.045-0.208-0.068-0.356-0.068h-1.064v1.131H68.239z"/>
		<path fill="#FFFFFF" d="M70.613,34.679h0.436v1.618l1.655-1.618h0.626l-1.412,1.335l1.441,1.971h-0.586l-1.186-1.661l-0.539,0.509
			v1.152h-0.436V34.679z"/>
		<path fill="#FFFFFF" d="M74.283,34.679h2.399v0.405H74.72v1.003h1.813v0.384H74.72v1.121h1.996v0.393h-2.434V34.679z"/>
		<path fill="#FFFFFF" d="M80.272,34.679v0.394h-1.114v2.912h-0.452v-2.912h-1.114v-0.394H80.272z"/>
		<path fill="#FFFFFF" d="M81.338,34.679h0.452v3.306h-0.452V34.679z"/>
		<path fill="#FFFFFF" d="M83.071,34.679h0.528l1.648,2.671v-2.671h0.428v3.306h-0.503l-1.674-2.668v2.668h-0.428V34.679z"/>
		<path fill="#FFFFFF" d="M89.154,34.773c0.324,0.173,0.522,0.476,0.596,0.907h-0.443c-0.053-0.241-0.163-0.418-0.329-0.527
			c-0.167-0.11-0.376-0.166-0.628-0.166c-0.3,0-0.553,0.115-0.758,0.345s-0.308,0.571-0.308,1.026c0,0.394,0.085,0.713,0.254,0.959
			c0.169,0.248,0.444,0.371,0.827,0.371c0.293,0,0.535-0.086,0.727-0.26c0.192-0.173,0.291-0.453,0.295-0.841h-1.035v-0.372h1.451
			v1.77h-0.288l-0.108-0.425c-0.148,0.166-0.281,0.282-0.396,0.347c-0.191,0.111-0.438,0.166-0.736,0.166
			c-0.385,0-0.717-0.126-0.994-0.381c-0.303-0.316-0.454-0.754-0.454-1.309c0-0.554,0.147-0.995,0.444-1.321
			c0.279-0.312,0.645-0.468,1.092-0.468C88.666,34.594,88.931,34.654,89.154,34.773z"/>
		<path fill="#FFFFFF" d="M93.218,36.918c0.011,0.188,0.053,0.34,0.128,0.457c0.144,0.219,0.396,0.328,0.757,0.328
			c0.162,0,0.31-0.023,0.443-0.071c0.257-0.093,0.385-0.26,0.385-0.499c0-0.181-0.055-0.309-0.164-0.387
			c-0.109-0.074-0.282-0.139-0.518-0.195l-0.435-0.101c-0.283-0.065-0.484-0.14-0.603-0.219c-0.203-0.138-0.305-0.345-0.305-0.618
			c0-0.298,0.1-0.542,0.301-0.732c0.199-0.19,0.482-0.285,0.85-0.285c0.337,0,0.624,0.083,0.859,0.25
			c0.236,0.168,0.354,0.436,0.354,0.803h-0.42c-0.021-0.178-0.068-0.312-0.139-0.407c-0.131-0.173-0.354-0.259-0.667-0.259
			c-0.253,0-0.436,0.055-0.546,0.166s-0.166,0.24-0.166,0.388c0,0.161,0.064,0.28,0.195,0.355c0.086,0.048,0.28,0.108,0.583,0.18
			l0.449,0.106c0.218,0.051,0.384,0.121,0.501,0.209c0.205,0.154,0.307,0.379,0.307,0.672c0,0.367-0.13,0.629-0.391,0.787
			c-0.26,0.157-0.561,0.236-0.905,0.236c-0.401,0-0.715-0.105-0.94-0.315c-0.228-0.208-0.34-0.491-0.334-0.849H93.218z"/>
		<path fill="#FFFFFF" d="M96.656,34.679h0.452v3.306h-0.452V34.679z"/>
		<path fill="#FFFFFF" d="M98.376,34.679h0.642l0.95,2.796l0.945-2.796h0.637v3.306h-0.428v-1.951c0-0.066,0.002-0.18,0.005-0.336
			s0.005-0.322,0.005-0.501l-0.944,2.788h-0.444l-0.953-2.788v0.101c0,0.081,0.002,0.205,0.008,0.371
			c0.004,0.166,0.006,0.287,0.006,0.365v1.951h-0.428V34.679z"/>
		<path fill="#FFFFFF" d="M102.824,34.679h1.48c0.291,0,0.528,0.083,0.707,0.248c0.181,0.166,0.271,0.399,0.271,0.699
			c0,0.259-0.081,0.483-0.242,0.675c-0.16,0.191-0.405,0.286-0.736,0.286h-1.033v1.397h-0.447V34.679z M104.562,35.133
			c-0.1-0.047-0.233-0.07-0.406-0.07h-0.885v1.146h0.885c0.201,0,0.362-0.043,0.486-0.128c0.125-0.086,0.188-0.236,0.188-0.453
			C104.83,35.385,104.74,35.221,104.562,35.133z"/>
		<path fill="#FFFFFF" d="M106.409,34.679h0.448v2.913h1.658v0.393h-2.106V34.679z"/>
		<path fill="#FFFFFF" d="M109.569,34.679h2.399v0.405h-1.963v1.003h1.814v0.384h-1.814v1.121h1.996v0.393h-2.433V34.679z"/>
		<path fill="#FFFFFF" d="M113.447,36.918c0.01,0.188,0.053,0.34,0.127,0.457c0.144,0.219,0.396,0.328,0.758,0.328
			c0.162,0,0.309-0.023,0.442-0.071c0.257-0.093,0.386-0.26,0.386-0.499c0-0.181-0.055-0.309-0.164-0.387
			c-0.11-0.074-0.283-0.139-0.52-0.195l-0.434-0.101c-0.283-0.065-0.484-0.14-0.602-0.219c-0.203-0.138-0.305-0.345-0.305-0.618
			c0-0.298,0.1-0.542,0.299-0.732c0.2-0.19,0.484-0.285,0.851-0.285c0.337,0,0.624,0.083,0.859,0.25
			c0.235,0.168,0.354,0.436,0.354,0.803h-0.421c-0.022-0.178-0.067-0.312-0.14-0.407c-0.129-0.173-0.353-0.259-0.666-0.259
			c-0.253,0-0.436,0.055-0.545,0.166c-0.111,0.111-0.166,0.24-0.166,0.388c0,0.161,0.064,0.28,0.195,0.355
			c0.086,0.048,0.28,0.108,0.582,0.18l0.449,0.106c0.217,0.051,0.384,0.121,0.502,0.209c0.203,0.154,0.305,0.379,0.305,0.672
			c0,0.367-0.129,0.629-0.389,0.787c-0.26,0.157-0.562,0.236-0.906,0.236c-0.4,0-0.715-0.105-0.941-0.315
			c-0.227-0.208-0.338-0.491-0.333-0.849H113.447z"/>
	</g>
</g>
</svg>
