<?xml version="1.0" encoding="utf-8"?>
<!-- Generator: Adobe Illustrator 16.0.0, SVG Export Plug-In . SVG Version: 6.00 Build 0)  -->
<!DOCTYPE svg PUBLIC "-//W3C//DTD SVG 1.1//EN" "http://www.w3.org/Graphics/SVG/1.1/DTD/svg11.dtd">
<svg version="1.1" id="Layer_1" xmlns="http://www.w3.org/2000/svg" xmlns:xlink="http://www.w3.org/1999/xlink" x="0px" y="0px"
	 width="94.971px" height="97.109px" viewBox="0 0 94.971 97.109" enable-background="new 0 0 94.971 97.109" xml:space="preserve">
<path fill="#662D91" d="M45.588,97.109c-0.189,0-0.379,0-0.569,0c0.01-0.137-0.05-0.328-0.159-0.291
	c-1.168,0.401-1.763-0.148-2.178-1.18c-0.128-0.318-0.515-0.548-0.809-0.784c-0.693-0.554-1.341-1.155-1.903-1.842
	c-0.416-0.506-0.834-0.853-1.51-0.398c-0.274,0.185-0.664,0.128-0.635-0.242c0.084-1.075-0.621-1.747-1.144-2.518
	c-0.294-0.434-0.394-0.862-0.003-1.292c1.704-1.867,3.382-3.76,5.822-4.732c2.003-0.798,2.483-3.66,0.853-5.097
	c-0.37-0.326-0.44-0.601-0.285-1.062c0.24-0.714,0.445-1.444,0.475-2.213c0.029-0.737-0.336-1.045-1.028-1.028
	c-1.591,0.04-1.589,0.044-1.498-1.516c0.015-0.251,0.03-0.504,0.026-0.756c-0.019-1.424-0.964-2.441-2.376-2.575
	c-0.566-0.053-1.13-0.123-1.695-0.182c-0.673-0.069-1.034-0.444-1.048-1.114c-0.059-2.747,0.309-5.429,1.331-7.994
	c0.438-1.1,0.113-2.236-0.898-2.797c-0.655-0.362-0.846-0.854-0.642-1.572c0.416-1.459,0.399-1.461-1.152-1.526
	c-0.968-0.041-1.864-0.306-2.644-0.899c-0.803-0.609-0.964-1.316-0.511-2.215c0.911-1.812-0.182-4.127-2.175-4.314
	c-0.923-0.086-1.671-0.104-2.024-1.094c-0.029-0.083-0.21-0.168-0.31-0.156c-0.646,0.075-1.015-0.388-1.496-0.679
	c-0.785-0.476-1.474-1.201-2.542-1.089c-0.269,0.027-0.618-0.18-0.844-0.377c-1.207-1.052-2.353-2.133-2.008-3.997
	c0.102-0.55,0.082-1.116,0.259-1.67c0.17-0.531,0.077-1.22-0.58-1.201c-1.348,0.04-2.646,0.248-3.729,1.314
	c-0.732,0.723-1.806,1.188-2.814,1.36c-1.388,0.236-2.833,0.185-4.253,0.175c-0.808-0.005-1.283-0.48-1.242-1.342
	c0.038-0.782,0.09-1.562,0.142-2.455c-0.988,0.376-1.922,0.724-2.849,1.087c-0.379,0.149-0.821,0.271-0.984-0.179
	c-0.271-0.745-0.819-1.083-1.495-1.316c-0.34-0.117-0.412-0.417-0.571-0.691c-0.598-1.03-0.798-2.239-1.421-3.235
	c-0.588-0.938-0.721-1.741,0.155-2.428c0.834-0.656,1.049-1.508,1.341-2.401c0.645-1.971,1.808-3.36,4.057-3.488
	c0.276-0.015,0.559-0.118,0.815-0.233c0.66-0.296,1.319-0.378,2.024-0.164c0.734,0.223,1.128-0.091,1.264-0.839
	c0.163-0.897,0.255-1.835,0.597-2.667c0.4-0.972,0.122-2.094,0.762-2.979c0.811-1.119,0.665-2.169-0.183-3.193
	c-0.181-0.217-0.332-0.461-0.473-0.707c-0.769-1.334-0.532-1.836,0.96-2.112c0.321-0.059,0.76-0.019,0.825-0.478
	c0.059-0.413-0.271-0.61-0.587-0.77c-0.397-0.202-0.866-0.36-0.736-0.941c0.146-0.652,0.696-0.651,1.207-0.647
	c1.071,0.009,2.136,0.098,3.203-0.162c1.582-0.385,2.068-0.077,2.577,1.493c0.361,1.111,0.956,1.474,2.131,1.323
	c0.214-0.027,0.465-0.042,0.652,0.043c0.606,0.273,1.092,0.023,1.595-0.268c1.31-0.758,2.623-1.512,3.945-2.248
	c1.022-0.569,1.073-1.128,0.086-1.795c-0.876-0.594-1.219-1.427-1.18-2.432c0.037-0.941,0.534-1.23,1.37-0.829
	c0.453,0.217,0.929,0.425,1.313,0.737c0.503,0.41,0.838,0.326,1.137-0.189c0.334-0.576,0.812-0.783,1.49-0.782
	c1.59,0.001,3.095-0.26,3.964-1.849C34.87,0.26,35.03,0.14,35.157,0c0.253,0,0.505,0,0.759,0c0.093,0.263,0.313,0.559,0.254,0.78
	c-0.203,0.751,0.038,1.278,0.618,1.734c0.419,0.329,0.275,0.717,0.043,1.096c-0.33,0.538-0.648,1.078-0.782,1.711
	c-0.323,1.533,0.25,2.777,1.226,3.894c0.816,0.934,1.792,0.495,2.732,0.287c1.166-0.258,2.304-0.607,3.534-0.221
	c0.675,0.213,1.296-0.156,1.798-0.632c1.163-1.103,2.512-1.12,3.781-0.034c1.25,1.069,4.02,0.862,5.043-0.364
	c0.155-0.187,0.367-0.365,0.59-0.45c0.471-0.181,0.652-0.462,0.688-0.984c0.062-0.884,0.804-1.325,1.449-1.742
	c0.398-0.256,0.717,0.068,0.806,0.504c0.244,1.203,0.7,2.36,0.793,3.595c0.059,0.774,0.386,1.292,1.2,1.486
	c0.404,0.097,0.873,0.164,1.154,0.588c-0.271,0.388-0.861,0.546-0.871,1.076c-0.016,0.838-0.583,1.185-1.188,1.56
	c-1.275,0.792-2.377,1.776-3.125,3.102c-0.096,0.17-0.324,0.388-0.129,0.587c0.16,0.163,0.436,0.111,0.631,0.017
	c0.422-0.207,0.869-0.401,1.231-0.693c1.929-1.553,3.948-1.116,5.987-0.314c0.564,0.222,0.646,0.589,0.174,0.991
	c-0.813,0.694-1.553,1.531-2.601,1.858c-0.895,0.279-0.493,0.68-0.163,1.031c0.379,0.404,0.624-0.097,0.825-0.274
	c1.636-1.439,3.429-1.927,5.604-1.384c1.998,0.499,3.5,1.844,5.277,2.704c0.393,0.19,0.324,0.538,0.255,0.907
	c-0.132,0.701-0.464,1.362-0.462,2.167c0.594-0.186,1.139-0.325,1.66-0.525c1.408-0.539,2.639-0.426,3.88,0.577
	c0.96,0.775,2.171,1.087,3.476,0.854c1.35-0.24,2.669-0.258,3.524,1.132c0.088,0.144,0.294,0.264,0.464,0.296
	c0.615,0.122,0.971,0.547,1.311,1.015c0.538,0.74,1.146,1.438,1.623,2.215c0.908,1.483,2.102,2.44,3.891,2.669
	c1.318,0.169,1.999,1.102,2.223,2.37c0.165,0.931,0.248,1.878,0.461,2.798c0.457,1.985,0.004,3.67-1.482,5.083
	c-0.547,0.521-1.162,1.024-1.54,1.659c-0.683,1.147-1.617,1.834-2.901,2.059c-0.938,0.165-1.521,0.68-1.822,1.576
	c-0.602,1.781-1.778,3.026-3.559,3.665c-0.854,0.307-1.188,0.947-1.309,1.795c-0.305,2.154-0.566,4.317-0.988,6.449
	c-0.34,1.714-0.642,3.5-2.204,4.67c-0.351,0.262-0.44,0.688-0.419,1.111c0.121,2.379-1.664,3.612-3.104,5.001
	c-0.467,0.45-1.062,0.778-1.368,1.382c-0.396,0.783-0.97,1.41-1.68,1.896c-1.587,1.088-3.233,2.087-5.263,1.29
	c-0.882-0.347-1.586-0.253-2.239,0.409c-0.703,0.714-1.575,0.95-2.56,1.048c-1.851,0.186-3.165,1.57-4.779,2.298
	c-0.077,0.034-0.137,0.136-0.176,0.219c-0.282,0.589-0.699,0.782-1.182,0.475c-1.099,1.889-1.131,3.988-1.403,6.041
	c-0.122,0.922-0.435,1.804-1.151,2.436c-1.055,0.929-1.952,1.96-2.578,3.23c-0.271,0.55-0.746,0.815-1.32,0.411
	c-0.346-0.243-0.548-0.173-0.789,0.112c-1.068,1.265-2.474,2.281-2.89,4.027C46.028,96.61,45.762,96.849,45.588,97.109z"/>
</svg>
