<?xml version="1.0" encoding="utf-8"?>
<!-- Generator: Adobe Illustrator 16.0.0, SVG Export Plug-In . SVG Version: 6.00 Build 0)  -->
<!DOCTYPE svg PUBLIC "-//W3C//DTD SVG 1.1//EN" "http://www.w3.org/Graphics/SVG/1.1/DTD/svg11.dtd">
<svg version="1.1" id="Layer_1" xmlns="http://www.w3.org/2000/svg" xmlns:xlink="http://www.w3.org/1999/xlink" x="0px" y="0px"
	 width="87.4px" height="87.4px" viewBox="0 0 87.4 87.4" enable-background="new 0 0 87.4 87.4" xml:space="preserve">
<g>
	<g>
		<path fill="#662D91" d="M64.495,87.4H12.508c-7.014,0-12.509-5.473-12.509-12.458l0.002-62.385
			c0-7.159,5.377-12.557,12.507-12.557L43.7,0l31.191,0.001c7.012,0,12.506,5.471,12.509,12.457V74.94
			c-0.003,6.987-5.497,12.46-12.509,12.46H64.495z M43.7,80.65h31.191c3.335,0,5.758-2.401,5.759-5.711v-62.48
			c-0.001-3.307-2.423-5.708-5.759-5.708L43.7,6.75L12.508,6.751c-3.389,0-5.757,2.388-5.757,5.807L6.749,74.942
			c0,3.308,2.422,5.708,5.759,5.708H43.7z"/>
	</g>
	<path fill-rule="evenodd" clip-rule="evenodd" fill="#662D91" d="M39.809,73.159c0.318-0.115,0.353-0.437,0.456-0.695
		c0.798-2.001,1.613-3.996,2.37-6.014c3.057-8.145,6.874-15.891,12.017-22.936c5.126-7.02,11.011-13.363,17.394-19.249
		c0.669-0.617,0.792-1.054,0.273-1.87c-1.526-2.396-2.943-4.861-4.401-7.3c-0.655-1.095-0.658-1.1-1.593-0.223
		c-5.629,5.278-11.088,10.725-16.281,16.437c-5.209,5.731-9.775,11.921-13.418,18.771c-0.512,0.966-0.506,0.967-1.363,0.199
		c-4.581-4.094-9.17-8.181-13.741-12.289c-0.589-0.529-0.944-0.627-1.4,0.177c-1.679,2.953-3.408,5.878-5.148,8.795
		c-0.332,0.557-0.285,0.911,0.21,1.334c1.59,1.357,3.132,2.771,4.717,4.136c4.338,3.734,8.673,7.472,12.388,11.849
		c2.327,2.739,4.574,5.547,6.864,8.319C39.33,72.819,39.451,73.119,39.809,73.159z"/>
</g>
</svg>
