<?xml version="1.0" encoding="utf-8"?>
<!-- Generator: Adobe Illustrator 16.0.0, SVG Export Plug-In . SVG Version: 6.00 Build 0)  -->
<!DOCTYPE svg PUBLIC "-//W3C//DTD SVG 1.1//EN" "http://www.w3.org/Graphics/SVG/1.1/DTD/svg11.dtd">
<svg version="1.1" id="Layer_1" xmlns="http://www.w3.org/2000/svg" xmlns:xlink="http://www.w3.org/1999/xlink" x="0px" y="0px"
	 width="79.92px" height="28.077px" viewBox="0 0 79.92 28.077" enable-background="new 0 0 79.92 28.077" xml:space="preserve">
<g>
	<path fill="#808285" d="M79.92,5.083c-0.265,1.861-0.562,3.747-0.895,5.658l-0.523,2.883l-0.644,2.849
		c-0.456,1.906-0.928,3.859-1.485,5.796c-0.586,1.911-1.22,3.849-1.903,5.809c0,0-0.596-0.115-1.191-0.229
		c-0.604-0.131-1.207-0.261-1.207-0.261c0.623-1.577,1.117-3.223,1.631-4.805c0.49-1.605,0.996-3.14,1.379-4.755
		c0.396-1.6,0.767-3.183,1.107-4.749l0.49-2.339l0.404-2.373c-4.467,3.179-9.098,6.172-14.045,8.609
		c-5.186,2.602-10.656,4.717-16.369,5.978c-1.414,0.372-2.875,0.534-4.317,0.777c-0.72,0.136-1.455,0.173-2.184,0.24l-2.192,0.179
		l-2.202,0.028l-1.101,0.013l-1.101-0.065l-2.2-0.138l-2.188-0.291c-5.828-0.846-11.452-2.99-16.428-6.116
		c-2.49-1.563-4.818-3.377-6.957-5.39C3.658,10.357,1.704,8.224,0,5.686L1.918,4.48c0.72,1.088,1.614,2.215,2.523,3.254
		c0.929,1.037,1.881,2.062,2.911,3.007c2.034,1.914,4.249,3.639,6.612,5.122c4.724,2.966,10.037,4.992,15.557,5.793l2.073,0.277
		l2.089,0.13l1.044,0.063l1.048-0.014l2.096-0.026l2.091-0.172c0.696-0.065,1.396-0.097,2.086-0.229
		c1.381-0.235,2.777-0.385,4.137-0.746c5.486-1.209,10.786-3.254,15.835-5.788c4.817-2.371,9.355-5.304,13.743-8.425l-2.299-0.392
		l-2.301-0.483c-1.521-0.333-3.015-0.685-4.48-1.052c-1.459-0.348-2.936-0.841-4.352-1.282C60.907,3.044,59.526,2.62,58.16,2.06
		c0,0,0.102-0.508,0.204-1.016C58.458,0.521,58.552,0,58.552,0c1.633,0.593,3.315,1.163,5.045,1.707
		c1.721,0.508,3.467,0.936,5.262,1.37c0.896,0.213,1.804,0.423,2.719,0.62l2.73,0.498C76.146,4.516,78.017,4.812,79.92,5.083z"/>
</g>
</svg>
