<?xml version="1.0" encoding="utf-8"?>
<!-- Generator: Adobe Illustrator 16.0.0, SVG Export Plug-In . SVG Version: 6.00 Build 0)  -->
<!DOCTYPE svg PUBLIC "-//W3C//DTD SVG 1.1//EN" "http://www.w3.org/Graphics/SVG/1.1/DTD/svg11.dtd">
<svg version="1.1" id="Layer_1" xmlns="http://www.w3.org/2000/svg" xmlns:xlink="http://www.w3.org/1999/xlink" x="0px" y="0px"
	 width="64.235px" height="64.236px" viewBox="0 0 64.235 64.236" enable-background="new 0 0 64.235 64.236" xml:space="preserve">
<g>
	<g>
		<path fill="#FFFFFF" d="M0,32.118C0,14.407,14.408,0,32.118,0s32.117,14.407,32.117,32.118c0,17.711-14.407,32.119-32.117,32.119
			S0,49.829,0,32.118z M57.201,32.118c0-13.831-11.251-25.083-25.083-25.083c-13.83,0-25.083,11.253-25.083,25.083
			s11.253,25.083,25.083,25.083C45.95,57.201,57.201,45.948,57.201,32.118z"/>
	</g>
	<path fill="#FFFFFF" d="M33.661,45.867L46.04,34.889c1.161-1.031,1.27-2.81,0.236-3.972c-1.03-1.163-2.809-1.27-3.971-0.238
		l-7.697,6.826V19.046c0-1.556-1.26-2.814-2.814-2.814c-1.554,0-2.813,1.259-2.813,2.814v18.459l-7.696-6.826
		c-1.163-1.032-2.941-0.925-3.972,0.238c-0.476,0.536-0.709,1.202-0.709,1.866c0,0.778,0.32,1.55,0.946,2.106l12.377,10.978
		C30.992,46.812,32.597,46.812,33.661,45.867z"/>
</g>
</svg>
